<svg width="498" height="107" viewBox="0 0 498 107" fill="none" xmlns="http://www.w3.org/2000/svg">
<path fill-rule="evenodd" clip-rule="evenodd" d="M57.1517 1.02829C54.5938 -1.19525 50.7863 0.419513 50.9685 3.65055L54.8673 72.7606C54.992 74.9722 57.0407 76.7373 59.2667 76.5511L75.536 75.1903C77.447 75.0304 78.8181 73.4722 78.7182 71.5737L75.9497 18.9497C75.8943 17.8954 75.386 16.8792 74.5513 16.1535L57.1517 1.02829ZM3.15436 57.028C-0.0656425 57.3048 -1.12919 61.2878 1.42422 63.5074L18.5688 78.411C19.389 79.124 20.4442 79.487 21.4808 79.4127L48.5138 77.4766C50.4119 77.3407 51.7902 75.793 51.7143 73.8829L51.0503 57.1749C50.9606 54.9188 48.9048 53.0951 46.6679 53.2874L3.15436 57.028ZM82.4542 27.8217C82.3449 25.8831 84.6294 24.9142 86.1641 26.2484L106.751 44.1445C107.252 44.5799 107.557 45.1896 107.59 45.8222L110.464 100.443C110.524 101.582 109.701 102.517 108.555 102.613L89.2758 104.226C87.9402 104.337 86.711 103.278 86.6361 101.951L82.4542 27.8217ZM31.4868 84.8504C29.5548 85.0164 28.9167 87.4062 30.4487 88.738L50.7587 106.393C51.2509 106.821 51.884 107.039 52.506 106.994L81.5228 104.916C82.6616 104.835 83.4886 103.906 83.4431 102.76L82.6581 83.01C82.6043 81.6564 81.3708 80.5622 80.0287 80.6775L31.4868 84.8504Z" fill="#004AF9"/>
<path d="M138.544 88.6715V41.9861H166.292V49.3505H146.237V61.3835H162.018V68.6822H146.237V88.6715H138.544ZM172.621 88.6715V39.3559H179.854V88.6715H172.621ZM201.343 89.3291C197.573 89.3291 194.593 88.0797 192.401 85.5811C190.209 83.0386 189.113 79.6632 189.113 75.4549V55.7944H196.346V74.2714C196.346 76.9015 196.916 78.9837 198.056 80.518C199.195 82.0084 200.817 82.7536 202.921 82.7536C205.376 82.7536 207.327 81.8331 208.774 79.992C210.22 78.107 210.943 75.433 210.943 71.97V55.7944H218.176V88.6715H210.943V84.2002C209.015 87.6194 205.815 89.3291 201.343 89.3291ZM266.638 89.0003C263.306 89.0003 260.588 88.0797 258.484 86.2386C256.424 84.3537 255.394 81.6358 255.394 78.0851V62.2383H249.607V55.7944H255.394V46.6546H262.627V55.7944H272.03V62.2383H262.627V76.9015C262.627 78.918 263.065 80.3427 263.942 81.1755C264.818 82.0084 266.221 82.4249 268.15 82.4249C269.816 82.4249 271.109 82.2276 272.03 81.8331V88.277C270.451 88.7592 268.654 89.0003 266.638 89.0003ZM242.177 89.0003C238.846 89.0003 236.128 88.0797 234.024 86.2386C231.963 84.3537 230.933 81.6358 230.933 78.0851V62.2383H224.095V55.7944H230.933V46.6546H238.166V55.7944H246.122V62.2383H238.166V76.9015C238.166 78.918 238.604 80.3427 239.481 81.1755C240.358 82.0084 241.761 82.4249 243.689 82.4249C245.355 82.4249 246.648 82.2276 247.569 81.8331V88.277C245.991 88.7592 244.194 89.0003 242.177 89.0003ZM292.976 89.3291C288.066 89.3291 284.033 87.729 280.877 84.529C277.721 81.2851 276.143 77.1865 276.143 72.233C276.143 67.2795 277.699 63.2027 280.811 60.0027C283.924 56.7588 288 55.1369 293.042 55.1369C298.127 55.1369 302.225 56.9123 305.338 60.463C308.45 63.9699 309.831 68.485 309.48 74.0083H283.31C283.398 76.5508 284.362 78.6769 286.203 80.3865C288.044 82.0961 290.389 82.9509 293.239 82.9509C297.272 82.9509 300.033 81.4166 301.524 78.3481H309.086C308.077 81.5481 306.149 84.1783 303.299 86.2386C300.45 88.2989 297.009 89.3291 292.976 89.3291ZM292.844 61.1863C290.477 61.1863 288.439 61.8657 286.729 63.2247C285.063 64.5397 283.989 66.4247 283.507 68.8795H301.721C301.195 66.337 300.121 64.4301 298.499 63.1589C296.877 61.8438 294.992 61.1863 292.844 61.1863ZM316.908 88.6715V55.7944H324.141V61.6466C324.754 59.8054 325.872 58.315 327.494 57.1753C329.16 56.0355 330.935 55.4657 332.82 55.4657C333.96 55.4657 334.902 55.5533 335.648 55.7287V63.1589C334.596 62.7644 333.39 62.5671 332.031 62.5671C329.839 62.5671 327.976 63.4658 326.442 65.263C324.908 67.0165 324.141 69.4713 324.141 72.6275V88.6715H316.908ZM364.68 89.4606C360.603 89.4606 357.184 88.277 354.422 85.9098C351.704 83.4988 350.345 80.1016 350.345 75.7179H357.973C357.973 77.7782 358.63 79.4002 359.945 80.5837C361.26 81.7235 362.839 82.2934 364.68 82.2934C366.565 82.2934 368.121 81.7016 369.348 80.518C370.619 79.3344 371.255 77.5591 371.255 75.1919V41.9861H378.948V75.8495C378.948 80.4084 377.589 83.8276 374.872 86.1071C372.198 88.3427 368.8 89.4606 364.68 89.4606ZM415.596 84.3975C412.308 87.6852 408.232 89.3291 403.366 89.3291C398.5 89.3291 394.401 87.6852 391.07 84.3975C387.782 81.0659 386.138 77.0111 386.138 72.233C386.138 67.4548 387.782 63.4219 391.07 60.1342C394.401 56.8027 398.5 55.1369 403.366 55.1369C408.232 55.1369 412.308 56.8027 415.596 60.1342C418.928 63.4219 420.593 67.4548 420.593 72.233C420.593 77.0111 418.928 81.0659 415.596 84.3975ZM403.366 82.6221C406.215 82.6221 408.56 81.6358 410.401 79.6632C412.286 77.6467 413.229 75.17 413.229 72.233C413.229 69.296 412.286 66.8411 410.401 64.8685C408.56 62.852 406.215 61.8438 403.366 61.8438C400.473 61.8438 398.083 62.852 396.199 64.8685C394.357 66.8411 393.437 69.296 393.437 72.233C393.437 75.17 394.357 77.6467 396.199 79.6632C398.083 81.6358 400.473 82.6221 403.366 82.6221ZM445.687 89.3291C443.452 89.3291 441.369 88.8469 439.441 87.8825C437.556 86.8742 436.109 85.6687 435.101 84.266V88.6715H427.868V39.3559H435.101V60.2C436.109 58.7972 437.556 57.6136 439.441 56.6492C441.369 55.641 443.452 55.1369 445.687 55.1369C450.159 55.1369 453.906 56.8027 456.931 60.1342C460 63.4658 461.534 67.4987 461.534 72.233C461.534 76.9673 460 81.0002 456.931 84.3317C453.906 87.6633 450.159 89.3291 445.687 89.3291ZM444.372 82.7536C447.221 82.7536 449.567 81.7454 451.408 79.7289C453.249 77.7125 454.17 75.2138 454.17 72.233C454.17 69.2521 453.249 66.7535 451.408 64.737C449.567 62.7205 447.221 61.7123 444.372 61.7123C441.479 61.7123 439.112 62.7205 437.271 64.737C435.43 66.7535 434.509 69.2521 434.509 72.233C434.509 75.2138 435.43 77.7125 437.271 79.7289C439.112 81.7454 441.479 82.7536 444.372 82.7536ZM480.473 89.3291C476.571 89.3291 473.284 88.3647 470.61 86.4359C467.979 84.5071 466.577 81.9207 466.401 78.6769H473.897C474.423 81.9207 476.681 83.5427 480.67 83.5427C482.292 83.5427 483.585 83.2578 484.549 82.6879C485.514 82.0742 485.996 81.1975 485.996 80.0577C485.996 78.918 485.623 78.0193 484.878 77.3618C484.133 76.7043 482.884 76.1563 481.13 75.7179L475.738 74.2714C470.127 72.7809 467.322 69.4713 467.322 64.3425C467.322 61.5808 468.44 59.3671 470.675 57.7013C472.911 55.9917 475.87 55.1369 479.552 55.1369C483.103 55.1369 486.018 56.0355 488.297 57.8328C490.577 59.6301 491.848 62.0192 492.111 65H484.878C484.177 62.2822 482.38 60.9233 479.486 60.9233C478.04 60.9233 476.878 61.2301 476.001 61.8438C475.125 62.4137 474.686 63.2247 474.686 64.2767C474.686 66.1617 476.155 67.4768 479.092 68.222L484.615 69.6686C490.445 71.159 493.361 74.4686 493.361 79.5974C493.361 82.7098 492.155 85.1208 489.744 86.8304C487.377 88.4962 484.286 89.3291 480.473 89.3291Z" fill="#004AF9"/>
</svg>
